<svg width="1024" height="1024" viewBox="0 0 1024 1024" fill="none" xmlns="http://www.w3.org/2000/svg">
  <defs>
    <linearGradient id="bg" x1="140" y1="120" x2="884" y2="904" gradientUnits="userSpaceOnUse">
      <stop stop-color="#446874"/>
      <stop offset="1" stop-color="#163240"/>
    </linearGradient>
    <linearGradient id="paper" x1="512" y1="214" x2="512" y2="744" gradientUnits="userSpaceOnUse">
      <stop stop-color="#FFF8EE"/>
      <stop offset="1" stop-color="#F1E2CF"/>
    </linearGradient>
    <linearGradient id="accent" x1="342" y1="512" x2="682" y2="512" gradientUnits="userSpaceOnUse">
      <stop stop-color="#E69A70" stop-opacity="0"/>
      <stop offset="0.5" stop-color="#E69A70"/>
      <stop offset="1" stop-color="#E69A70" stop-opacity="0"/>
    </linearGradient>
    <filter id="shadow" x="76" y="88" width="872" height="876" filterUnits="userSpaceOnUse" color-interpolation-filters="sRGB">
      <feFlood flood-opacity="0" result="BackgroundImageFix"/>
      <feColorMatrix in="SourceAlpha" type="matrix" values="0 0 0 0 0 0 0 0 0 0 0 0 0 0 0 0 0 0 127 0" result="hardAlpha"/>
      <feOffset dy="22"/>
      <feGaussianBlur stdDeviation="28"/>
      <feColorMatrix type="matrix" values="0 0 0 0 0.05 0 0 0 0 0.11 0 0 0 0 0.16 0 0 0 0.22 0"/>
      <feBlend mode="normal" in2="BackgroundImageFix" result="effect1_dropShadow_1_1"/>
      <feBlend mode="normal" in="SourceGraphic" in2="effect1_dropShadow_1_1" result="shape"/>
    </filter>
  </defs>

  <rect width="1024" height="1024" rx="248" fill="#EEF2F0"/>
  <g filter="url(#shadow)">
    <rect x="140" y="120" width="744" height="744" rx="142" fill="url(#bg)"/>
  </g>

  <rect x="350" y="220" width="324" height="418" rx="34" fill="url(#paper)"/>
  <rect x="350" y="220" width="324" height="418" rx="34" stroke="#EADBC8" stroke-width="6"/>

  <path d="M387 281C387 270.507 395.507 262 406 262H448" stroke="#6C8890" stroke-width="10" stroke-linecap="round"/>
  <path d="M387 281V324" stroke="#6C8890" stroke-width="10" stroke-linecap="round"/>
  <path d="M637 281C637 270.507 628.493 262 618 262H576" stroke="#6C8890" stroke-width="10" stroke-linecap="round"/>
  <path d="M637 281V324" stroke="#6C8890" stroke-width="10" stroke-linecap="round"/>
  <path d="M387 575C387 585.493 395.507 594 406 594H448" stroke="#6C8890" stroke-width="10" stroke-linecap="round"/>
  <path d="M387 575V532" stroke="#6C8890" stroke-width="10" stroke-linecap="round"/>
  <path d="M637 575C637 585.493 628.493 594 618 594H576" stroke="#6C8890" stroke-width="10" stroke-linecap="round"/>
  <path d="M637 575V532" stroke="#6C8890" stroke-width="10" stroke-linecap="round"/>

  <path d="M465 387.177C465 376.929 476.099 370.53 484.98 375.669L558.787 418.387C567.668 423.526 567.668 436.343 558.787 441.482L484.98 484.199C476.099 489.338 465 482.94 465 472.691V387.177Z" stroke="#6C8890" stroke-width="12" fill="none"/>

  <rect x="370" y="548" width="284" height="18" rx="9" fill="#2A4655"/>
  <rect x="370" y="590" width="228" height="16" rx="8" fill="#2A4655"/>
  <rect x="370" y="626" width="188" height="16" rx="8" fill="#2A4655"/>
  <rect x="370" y="662" width="246" height="16" rx="8" fill="#2A4655"/>
  <rect x="406" y="698" width="164" height="16" rx="8" fill="#2A4655"/>

  <rect x="306" y="514" width="412" height="12" rx="6" fill="url(#accent)"/>
</svg>
